<mxfile host="app.diagrams.net" modified="2023-11-14T03:32:54.488Z" agent="Mozilla/5.0 (Windows NT 10.0; Win64; x64) AppleWebKit/537.36 (KHTML, like Gecko) Chrome/118.0.0.0 Safari/537.36" etag="yeVCIqCtbRW2N14p4VgP" version="21.6.9" type="device">
  <diagram name="Page-1" id="zDqgq4aidtgjwOtBrlsz">
    <mxGraphModel dx="1034" dy="1816" grid="1" gridSize="10" guides="1" tooltips="1" connect="1" arrows="1" fold="1" page="1" pageScale="1" pageWidth="850" pageHeight="1100" math="0" shadow="0">
      <root>
        <mxCell id="0" />
        <mxCell id="1" parent="0" />
        <mxCell id="Z0_jcXT-F79JQHAhDQw1-1" value="staff" style="shape=umlActor;verticalLabelPosition=bottom;verticalAlign=top;html=1;" parent="1" vertex="1">
          <mxGeometry x="190" y="210" width="30" height="60" as="geometry" />
        </mxCell>
        <mxCell id="Z0_jcXT-F79JQHAhDQw1-2" value="manager" style="shape=umlActor;verticalLabelPosition=bottom;verticalAlign=top;html=1;" parent="1" vertex="1">
          <mxGeometry x="660" y="200" width="30" height="60" as="geometry" />
        </mxCell>
        <mxCell id="Z0_jcXT-F79JQHAhDQw1-3" value="Login" style="ellipse;whiteSpace=wrap;html=1;" parent="1" vertex="1">
          <mxGeometry x="350" y="-50" width="140" height="70" as="geometry" />
        </mxCell>
        <mxCell id="Z0_jcXT-F79JQHAhDQw1-4" value="Logout" style="ellipse;whiteSpace=wrap;html=1;" parent="1" vertex="1">
          <mxGeometry x="590" y="-30" width="140" height="70" as="geometry" />
        </mxCell>
        <mxCell id="Z0_jcXT-F79JQHAhDQw1-6" value="&amp;lt;&amp;lt;extend&amp;gt;&amp;gt;" style="endArrow=open;endSize=12;dashed=1;html=1;rounded=0;exitX=0;exitY=0.5;exitDx=0;exitDy=0;entryX=1;entryY=0.5;entryDx=0;entryDy=0;" parent="1" source="Z0_jcXT-F79JQHAhDQw1-4" target="Z0_jcXT-F79JQHAhDQw1-3" edge="1">
          <mxGeometry width="160" relative="1" as="geometry">
            <mxPoint x="510" y="100" as="sourcePoint" />
            <mxPoint x="670" y="100" as="targetPoint" />
          </mxGeometry>
        </mxCell>
        <mxCell id="Z0_jcXT-F79JQHAhDQw1-7" value="Forgot password" style="ellipse;whiteSpace=wrap;html=1;" parent="1" vertex="1">
          <mxGeometry x="110" y="-20" width="140" height="70" as="geometry" />
        </mxCell>
        <mxCell id="Z0_jcXT-F79JQHAhDQw1-9" value="&amp;lt;&amp;lt;extend&amp;gt;&amp;gt;" style="endArrow=open;endSize=12;dashed=1;html=1;rounded=0;exitX=1;exitY=0.5;exitDx=0;exitDy=0;entryX=0.007;entryY=0.657;entryDx=0;entryDy=0;entryPerimeter=0;" parent="1" source="Z0_jcXT-F79JQHAhDQw1-7" target="Z0_jcXT-F79JQHAhDQw1-3" edge="1">
          <mxGeometry width="160" relative="1" as="geometry">
            <mxPoint x="601" y="69" as="sourcePoint" />
            <mxPoint x="505" y="75" as="targetPoint" />
          </mxGeometry>
        </mxCell>
        <mxCell id="Z0_jcXT-F79JQHAhDQw1-10" value="manage personal information" style="ellipse;whiteSpace=wrap;html=1;" parent="1" vertex="1">
          <mxGeometry x="355" y="140" width="140" height="70" as="geometry" />
        </mxCell>
        <mxCell id="Z0_jcXT-F79JQHAhDQw1-11" value="Change password" style="ellipse;whiteSpace=wrap;html=1;" parent="1" vertex="1">
          <mxGeometry x="355" y="40" width="140" height="70" as="geometry" />
        </mxCell>
        <mxCell id="Z0_jcXT-F79JQHAhDQw1-13" value="Manage staff" style="ellipse;whiteSpace=wrap;html=1;" parent="1" vertex="1">
          <mxGeometry x="700" y="470" width="140" height="70" as="geometry" />
        </mxCell>
        <mxCell id="Z0_jcXT-F79JQHAhDQw1-14" value="Checkin" style="ellipse;whiteSpace=wrap;html=1;" parent="1" vertex="1">
          <mxGeometry x="355" y="240" width="140" height="70" as="geometry" />
        </mxCell>
        <mxCell id="Z0_jcXT-F79JQHAhDQw1-16" value="Manage work day" style="ellipse;whiteSpace=wrap;html=1;" parent="1" vertex="1">
          <mxGeometry x="355" y="350" width="140" height="70" as="geometry" />
        </mxCell>
        <mxCell id="Z0_jcXT-F79JQHAhDQw1-17" value="Manage staff work day" style="ellipse;whiteSpace=wrap;html=1;" parent="1" vertex="1">
          <mxGeometry x="510" y="470" width="140" height="70" as="geometry" />
        </mxCell>
        <mxCell id="Z0_jcXT-F79JQHAhDQw1-18" value="Manage company branches" style="ellipse;whiteSpace=wrap;html=1;" parent="1" vertex="1">
          <mxGeometry x="800" y="370" width="140" height="70" as="geometry" />
        </mxCell>
        <mxCell id="Z0_jcXT-F79JQHAhDQw1-20" value="export Exel file" style="ellipse;whiteSpace=wrap;html=1;" parent="1" vertex="1">
          <mxGeometry x="330" y="470" width="140" height="70" as="geometry" />
        </mxCell>
        <mxCell id="Z0_jcXT-F79JQHAhDQw1-21" value="&amp;lt;&amp;lt;extend&amp;gt;&amp;gt;" style="endArrow=open;endSize=12;dashed=1;html=1;rounded=0;entryX=0.35;entryY=1;entryDx=0;entryDy=0;entryPerimeter=0;exitX=0.421;exitY=0;exitDx=0;exitDy=0;exitPerimeter=0;" parent="1" source="Z0_jcXT-F79JQHAhDQw1-20" target="Z0_jcXT-F79JQHAhDQw1-16" edge="1">
          <mxGeometry width="160" relative="1" as="geometry">
            <mxPoint x="290" y="480" as="sourcePoint" />
            <mxPoint x="373" y="517" as="targetPoint" />
          </mxGeometry>
        </mxCell>
        <mxCell id="Z0_jcXT-F79JQHAhDQw1-22" value="export Exel file" style="ellipse;whiteSpace=wrap;html=1;" parent="1" vertex="1">
          <mxGeometry x="480" y="580" width="140" height="70" as="geometry" />
        </mxCell>
        <mxCell id="Z0_jcXT-F79JQHAhDQw1-23" value="&amp;lt;&amp;lt;extend&amp;gt;&amp;gt;" style="endArrow=open;endSize=12;dashed=1;html=1;rounded=0;exitX=0.421;exitY=0;exitDx=0;exitDy=0;exitPerimeter=0;" parent="1" source="Z0_jcXT-F79JQHAhDQw1-22" target="Z0_jcXT-F79JQHAhDQw1-17" edge="1">
          <mxGeometry width="160" relative="1" as="geometry">
            <mxPoint x="470" y="530" as="sourcePoint" />
            <mxPoint x="584" y="540" as="targetPoint" />
          </mxGeometry>
        </mxCell>
        <mxCell id="Z0_jcXT-F79JQHAhDQw1-24" value="" style="endArrow=none;html=1;rounded=0;exitX=1;exitY=1;exitDx=0;exitDy=0;exitPerimeter=0;entryX=0;entryY=1;entryDx=0;entryDy=0;" parent="1" source="Z0_jcXT-F79JQHAhDQw1-1" target="Z0_jcXT-F79JQHAhDQw1-3" edge="1">
          <mxGeometry width="50" height="50" relative="1" as="geometry">
            <mxPoint x="260" y="270" as="sourcePoint" />
            <mxPoint x="310" y="220" as="targetPoint" />
          </mxGeometry>
        </mxCell>
        <mxCell id="Z0_jcXT-F79JQHAhDQw1-25" value="" style="endArrow=none;html=1;rounded=0;entryX=0.014;entryY=0.414;entryDx=0;entryDy=0;exitX=1;exitY=1;exitDx=0;exitDy=0;exitPerimeter=0;entryPerimeter=0;" parent="1" source="Z0_jcXT-F79JQHAhDQw1-1" target="Z0_jcXT-F79JQHAhDQw1-10" edge="1">
          <mxGeometry width="50" height="50" relative="1" as="geometry">
            <mxPoint x="230" y="280" as="sourcePoint" />
            <mxPoint x="381" y="20" as="targetPoint" />
          </mxGeometry>
        </mxCell>
        <mxCell id="Z0_jcXT-F79JQHAhDQw1-30" value="" style="endArrow=none;html=1;rounded=0;exitX=1;exitY=1;exitDx=0;exitDy=0;exitPerimeter=0;entryX=0;entryY=0.5;entryDx=0;entryDy=0;" parent="1" source="Z0_jcXT-F79JQHAhDQw1-1" target="Z0_jcXT-F79JQHAhDQw1-14" edge="1">
          <mxGeometry width="50" height="50" relative="1" as="geometry">
            <mxPoint x="250" y="360" as="sourcePoint" />
            <mxPoint x="300" y="310" as="targetPoint" />
          </mxGeometry>
        </mxCell>
        <mxCell id="Z0_jcXT-F79JQHAhDQw1-32" value="" style="endArrow=none;html=1;rounded=0;entryX=1;entryY=1;entryDx=0;entryDy=0;entryPerimeter=0;exitX=0;exitY=0.5;exitDx=0;exitDy=0;" parent="1" source="Z0_jcXT-F79JQHAhDQw1-16" target="Z0_jcXT-F79JQHAhDQw1-1" edge="1">
          <mxGeometry width="50" height="50" relative="1" as="geometry">
            <mxPoint x="220" y="390" as="sourcePoint" />
            <mxPoint x="270" y="340" as="targetPoint" />
          </mxGeometry>
        </mxCell>
        <mxCell id="Z0_jcXT-F79JQHAhDQw1-33" value="" style="endArrow=none;html=1;rounded=0;entryX=0;entryY=1;entryDx=0;entryDy=0;entryPerimeter=0;exitX=0.964;exitY=0.771;exitDx=0;exitDy=0;exitPerimeter=0;" parent="1" source="Z0_jcXT-F79JQHAhDQw1-3" target="Z0_jcXT-F79JQHAhDQw1-2" edge="1">
          <mxGeometry width="50" height="50" relative="1" as="geometry">
            <mxPoint x="560" y="270" as="sourcePoint" />
            <mxPoint x="610" y="220" as="targetPoint" />
          </mxGeometry>
        </mxCell>
        <mxCell id="Z0_jcXT-F79JQHAhDQw1-34" value="" style="endArrow=none;html=1;rounded=0;entryX=0;entryY=1;entryDx=0;entryDy=0;entryPerimeter=0;exitX=1;exitY=0.5;exitDx=0;exitDy=0;" parent="1" source="Z0_jcXT-F79JQHAhDQw1-10" target="Z0_jcXT-F79JQHAhDQw1-2" edge="1">
          <mxGeometry width="50" height="50" relative="1" as="geometry">
            <mxPoint x="560" y="330" as="sourcePoint" />
            <mxPoint x="610" y="280" as="targetPoint" />
          </mxGeometry>
        </mxCell>
        <mxCell id="Z0_jcXT-F79JQHAhDQw1-35" value="" style="endArrow=none;html=1;rounded=0;entryX=0;entryY=1;entryDx=0;entryDy=0;entryPerimeter=0;exitX=1;exitY=0.5;exitDx=0;exitDy=0;" parent="1" source="Z0_jcXT-F79JQHAhDQw1-14" target="Z0_jcXT-F79JQHAhDQw1-2" edge="1">
          <mxGeometry width="50" height="50" relative="1" as="geometry">
            <mxPoint x="580" y="330" as="sourcePoint" />
            <mxPoint x="630" y="280" as="targetPoint" />
          </mxGeometry>
        </mxCell>
        <mxCell id="Z0_jcXT-F79JQHAhDQw1-37" value="" style="endArrow=none;html=1;rounded=0;entryX=0;entryY=1;entryDx=0;entryDy=0;entryPerimeter=0;exitX=1;exitY=0.5;exitDx=0;exitDy=0;" parent="1" source="Z0_jcXT-F79JQHAhDQw1-16" target="Z0_jcXT-F79JQHAhDQw1-2" edge="1">
          <mxGeometry width="50" height="50" relative="1" as="geometry">
            <mxPoint x="550" y="410" as="sourcePoint" />
            <mxPoint x="600" y="360" as="targetPoint" />
          </mxGeometry>
        </mxCell>
        <mxCell id="Z0_jcXT-F79JQHAhDQw1-38" value="" style="endArrow=none;html=1;rounded=0;entryX=0;entryY=1;entryDx=0;entryDy=0;entryPerimeter=0;exitX=0.5;exitY=0;exitDx=0;exitDy=0;" parent="1" source="Z0_jcXT-F79JQHAhDQw1-17" target="Z0_jcXT-F79JQHAhDQw1-2" edge="1">
          <mxGeometry width="50" height="50" relative="1" as="geometry">
            <mxPoint x="590" y="430" as="sourcePoint" />
            <mxPoint x="640" y="380" as="targetPoint" />
          </mxGeometry>
        </mxCell>
        <mxCell id="Z0_jcXT-F79JQHAhDQw1-39" value="" style="endArrow=none;html=1;rounded=0;entryX=0;entryY=1;entryDx=0;entryDy=0;entryPerimeter=0;exitX=0.307;exitY=-0.043;exitDx=0;exitDy=0;exitPerimeter=0;" parent="1" source="Z0_jcXT-F79JQHAhDQw1-13" target="Z0_jcXT-F79JQHAhDQw1-2" edge="1">
          <mxGeometry width="50" height="50" relative="1" as="geometry">
            <mxPoint x="670" y="420" as="sourcePoint" />
            <mxPoint x="720" y="370" as="targetPoint" />
          </mxGeometry>
        </mxCell>
        <mxCell id="Z0_jcXT-F79JQHAhDQw1-40" value="" style="endArrow=none;html=1;rounded=0;exitX=0;exitY=1;exitDx=0;exitDy=0;exitPerimeter=0;" parent="1" source="Z0_jcXT-F79JQHAhDQw1-2" target="Z0_jcXT-F79JQHAhDQw1-18" edge="1">
          <mxGeometry width="50" height="50" relative="1" as="geometry">
            <mxPoint x="760" y="350" as="sourcePoint" />
            <mxPoint x="810" y="300" as="targetPoint" />
          </mxGeometry>
        </mxCell>
        <mxCell id="Z0_jcXT-F79JQHAhDQw1-41" value="filter" style="ellipse;whiteSpace=wrap;html=1;" parent="1" vertex="1">
          <mxGeometry x="640" y="560" width="120" height="80" as="geometry" />
        </mxCell>
        <mxCell id="Z0_jcXT-F79JQHAhDQw1-42" value="&amp;lt;&amp;lt;extend&amp;gt;&amp;gt;" style="endArrow=open;endSize=12;dashed=1;html=1;rounded=0;exitX=0;exitY=0;exitDx=0;exitDy=0;entryX=0.807;entryY=0.886;entryDx=0;entryDy=0;entryPerimeter=0;" parent="1" source="Z0_jcXT-F79JQHAhDQw1-41" target="Z0_jcXT-F79JQHAhDQw1-17" edge="1">
          <mxGeometry width="160" relative="1" as="geometry">
            <mxPoint x="599" y="590" as="sourcePoint" />
            <mxPoint x="594" y="550" as="targetPoint" />
          </mxGeometry>
        </mxCell>
        <mxCell id="3RxOKIeK0UA37PxXUF5P-1" value="" style="endArrow=none;html=1;rounded=0;exitX=1;exitY=1;exitDx=0;exitDy=0;exitPerimeter=0;entryX=0.093;entryY=0.771;entryDx=0;entryDy=0;entryPerimeter=0;" edge="1" parent="1" source="Z0_jcXT-F79JQHAhDQw1-1" target="Z0_jcXT-F79JQHAhDQw1-11">
          <mxGeometry width="50" height="50" relative="1" as="geometry">
            <mxPoint x="180" y="240" as="sourcePoint" />
            <mxPoint x="230" y="190" as="targetPoint" />
          </mxGeometry>
        </mxCell>
        <mxCell id="3RxOKIeK0UA37PxXUF5P-2" value="" style="endArrow=none;html=1;rounded=0;exitX=0;exitY=1;exitDx=0;exitDy=0;exitPerimeter=0;entryX=0.921;entryY=0.829;entryDx=0;entryDy=0;entryPerimeter=0;" edge="1" parent="1" source="Z0_jcXT-F79JQHAhDQw1-2" target="Z0_jcXT-F79JQHAhDQw1-11">
          <mxGeometry width="50" height="50" relative="1" as="geometry">
            <mxPoint x="600" y="180" as="sourcePoint" />
            <mxPoint x="650" y="130" as="targetPoint" />
          </mxGeometry>
        </mxCell>
      </root>
    </mxGraphModel>
  </diagram>
</mxfile>
